<?xml version="1.0" encoding="utf-8"?>
<!-- Generator: Adobe Illustrator 27.5.0, SVG Export Plug-In . SVG Version: 6.00 Build 0)  -->
<svg version="1.1" id="Capa_1" xmlns="http://www.w3.org/2000/svg" xmlns:xlink="http://www.w3.org/1999/xlink" x="0px" y="0px"
	 viewBox="0 0 612 792" style="enable-background:new 0 0 612 792;" xml:space="preserve">
<path d="M297.41,589.42C169.24,589.53,64.36,484.74,64.3,356.51c-0.07-128.7,104.51-233.54,232.97-233.57
	c128.65-0.03,233.37,104.58,233.39,233.15C530.69,484.71,426.12,589.31,297.41,589.42z M333.85,231.35
	c0.35-1.29,0.88-2.21,0.79-3.06c-0.57-5.11-1.24-10.21-1.96-15.3c-0.42-2.98-1.35-5.92-1.43-8.89c-0.16-6.17-1.89-8.47-7.68-10.47
	c-8.82-3.04-17.97-2.81-27.03-2.78c-7.68,0.03-15.38,0.96-23.02,1.89c-3.41,0.42-7.2,1.55-8.59,5.07
	c-1.52,3.85-2.15,8.06-3.01,12.15c-0.18,0.85,0.56,1.88,0.45,2.77c-0.5,4.03-1.27,8.02-1.68,12.06c-0.17,1.65-0.09,3.56,0.62,4.99
	c0.81,1.62,0.5,2.15-0.98,2.59c-1.82,0.55-3.69,0.97-5.43,1.7c-7.93,3.29-12.06,10.32-15.9,17.24c-3.39,6.1-5.66,12.81-8.45,19.25
	c-1.1,2.53-2.63,4.51-5.47,5.5c-3.16,1.1-4.46,4.46-2.54,6.91c1.49,1.9,1.28,3.79,1.49,5.82c0.53,5.36-1.68,11.13,2.32,15.98
	c0.09,0.11,0.04,0.34,0.06,0.51c0.35,3.53,0.89,7.05,1.02,10.58c0.32,8.75,0.16,17.53,0.72,26.26c1.48,22.93,2.87,45.87,5,68.75
	c1.62,17.42,4.11,34.76,6.57,52.09c2.2,15.51,5.36,30.85,9.52,45.96c1.49,5.41,7.29,11.02,12.63,11.41
	c7.6,0.55,15.23,0.8,22.85,0.93c6.93,0.11,13.87-0.19,20.81-0.17c7.46,0.02,14.91,0.28,22.37,0.31c6.58,0.02,11.92-2.46,15.72-8.05
	c3.92-5.76,5.28-12.47,6.55-19.01c2.94-15.21,5.31-30.54,7.71-45.85c1.38-8.81,2.55-17.67,3.49-26.54
	c1.02-9.57,1.64-19.18,2.48-28.78c0.71-8.2,1.59-16.39,2.2-24.59c0.56-7.52,0.94-15.06,1.24-22.6c0.54-13.51,0.97-27.02,1.45-40.53
	c0.01-0.34-0.09-0.86,0.09-1c2.26-1.74,1.29-4.23,1.59-6.44c0.79-5.72-0.97-11.69,2.45-17.21c1.56-2.52,0.28-4.3-2.59-5.08
	c-2.83-0.77-4.64-2.47-5.79-5.12c-2.98-6.91-5.67-13.97-9.15-20.62c-4.21-8.04-9.84-14.92-19.15-17.61
	C335.36,232.13,334.62,231.7,333.85,231.35z M315.02,561.52c-2.64-6.67-5.04-12.87-7.55-19.03c-0.85-2.08-1.89-4.1-3.05-6.02
	c-0.32-0.54-1.37-0.65-2.08-0.96c-0.29,0.71-0.81,1.41-0.82,2.12c-0.01,1.64,0.33,3.27,0.37,4.91c0.2,9.11,0.35,18.22,0.52,27.33
	c0.02,0.95-0.17,2.01,0.19,2.83c0.34,0.77,1.26,1.28,1.93,1.9c0.51-0.66,1.13-1.27,1.5-2c0.2-0.4-0.02-1.02-0.04-1.54
	c-0.32-8.15-0.65-16.29-0.96-24.44c-0.02-0.59,0.11-1.18,0.17-1.77c0.24-0.03,0.49-0.05,0.73-0.08c2.17,7.29,4.29,14.59,6.55,21.85
	c0.31,1.01,1.27,1.83,1.93,2.73c0.74-0.8,1.89-1.48,2.14-2.41c1-3.67,1.8-7.39,2.52-11.13c0.73-3.75,1.29-7.54,1.97-11.66
	c0.33,0.52,0.47,0.63,0.48,0.76c0.93,9.05,1.79,18.1,2.85,27.13c0.12,0.98,1.41,2.66,2.02,2.6c1.79-0.17,1.71-1.77,1.42-3.24
	c-0.36-1.87-0.75-3.74-0.94-5.62c-0.99-9.66-1.88-19.33-2.93-28.98c-0.11-0.98-1.06-1.88-1.63-2.81c-0.77,0.78-1.98,1.44-2.23,2.36
	c-1.18,4.43-2.17,8.9-3.08,13.4C316.26,553.53,315.72,557.35,315.02,561.52z M378.14,187.91c-0.2-0.06-0.4-0.12-0.6-0.18
	c0.23-1.62,0.5-3.24,0.69-4.87c0.92-8.08,1.94-16.16,2.64-24.27c0.14-1.57-0.67-4.38-1.62-4.66c-2.1-0.62-3.07,1.67-3.87,3.4
	c-4.11,8.87-8.21,17.76-12.28,26.65c-0.36,0.78-0.81,1.68-0.69,2.45c0.11,0.74,0.9,1.38,1.39,2.06c0.58-0.51,1.34-0.93,1.7-1.56
	c0.44-0.8,0.44-1.83,0.82-2.68c3.21-7.2,6.46-14.38,9.71-21.55c0.33-0.73,0.76-1.42,1.14-2.13c0.27,0.06,0.54,0.12,0.8,0.18
	c-1.1,9.97-2.24,19.94-3.26,29.92c-0.11,1.1,0.07,2.76,0.78,3.3c1.38,1.06,2.54-0.01,3.25-1.4c4.98-9.8,9.99-19.58,14.87-29.43
	c0.35-0.7-0.32-1.9-0.52-2.87c-0.71,0.54-1.74,0.92-2.09,1.63c-2.01,4.03-3.78,8.17-5.77,12.21
	C382.92,178.75,380.5,183.31,378.14,187.91z M371.46,553.84c-0.21,0.09-0.41,0.17-0.62,0.26c-0.51-0.67-1.04-1.33-1.52-2.02
	c-3.21-4.64-6.28-9.37-9.64-13.9c-2.42-3.26-5.14-6.31-7.9-9.3c-0.63-0.68-1.95-0.71-2.95-1.04c-0.32,1.04-0.71,2.07-0.91,3.14
	c-0.09,0.46,0.2,1.01,0.36,1.5c3.11,9.64,6.23,19.27,9.36,28.9c0.21,0.65,0.4,1.49,0.89,1.83c0.66,0.46,1.6,0.52,2.42,0.75
	c0.1-0.82,0.41-1.69,0.24-2.46c-0.19-0.89-0.91-1.65-1.21-2.53c-2.54-7.55-5.03-15.12-7.53-22.68c-0.21-0.63-0.33-1.29-0.68-2.67
	c0.82,0.95,1.11,1.26,1.37,1.6c5.93,7.89,11.83,15.81,17.82,23.66c0.5,0.66,1.9,1.41,2.33,1.16c0.75-0.43,1.23-1.56,1.53-2.49
	c0.19-0.59-0.09-1.37-0.28-2.03c-2.7-9.67-5.39-19.34-8.18-28.98c-0.39-1.35-0.58-3.78-2.63-3.16c-2.25,0.68-0.64,2.65-0.25,3.96
	C366.09,536.18,368.79,545,371.46,553.84z M294.48,144.53c0.66,0.6,0.93,0.73,0.99,0.92c3.05,9.55,6.05,19.11,9.15,28.63
	c0.29,0.9,1.12,2.1,1.9,2.27c1.48,0.34,2.29-0.75,2.44-2.29c0.31-3.19,0.8-6.36,0.99-9.56c0.47-7.79,0.87-15.58,1.12-23.37
	c0.03-0.88-1.09-1.79-1.68-2.69c-0.42,0.88-1.17,1.74-1.22,2.64c-0.29,5.37-0.35,10.75-0.63,16.11c-0.22,4.15-0.65,8.3-0.99,12.44
	c-1.23-2.45-1.82-4.95-2.59-7.4c-2.27-7.25-4.54-14.51-7-21.7c-0.38-1.1-1.82-1.83-2.76-2.73c-0.73,1.27-1.47,2.54-2.17,3.83
	c-0.11,0.2-0.03,0.51-0.03,0.77c-0.23,9.62-0.48,19.24-0.69,28.86c-0.02,1.12-0.07,2.31,0.29,3.33c0.21,0.59,1.2,0.9,1.84,1.33
	c0.42-0.66,1.2-1.31,1.21-1.98c0.05-3.7-0.14-7.4-0.16-11.1C294.45,156.91,294.48,150.97,294.48,144.53z M187.74,184.13
	c0.82-4.19,0.45-7.99-2.01-11.34c-2.09-2.85-4.87-4.48-8.5-3.86c-4.48,0.77-5.24,2.55-2.81,6.37c6.58,10.38,13.21,20.72,19.76,31.11
	c0.97,1.53,1.93,1.67,3.41,0.84c3.67-2.07,5.37-6.35,4.03-11.34C199.77,188.98,194.86,185.36,187.74,184.13z M242.38,533.39
	c-0.16-1.49-0.2-2.36-0.35-3.21c-0.52-2.94-2.41-4.85-5.09-5.73c-2.59-0.84-4.19,1.07-5.61,2.86c-0.86,1.08-1.8,2.2-2.28,3.46
	c-2.66,7.03-5.39,14.05-7.66,21.21c-0.93,2.93-1.17,6.5,1.23,8.91c2.02,2.03,1.91,3.97,1.38,6.28c-0.31,1.35-0.77,2.71-0.79,4.07
	c-0.01,0.75,0.54,1.82,1.18,2.22c0.95,0.59,2.19,0.71,3.31,1.03c0.14-0.66,0.6-1.77,0.37-1.93c-3.19-2.3-0.87-5.22-0.91-7.83
	c-0.01-0.5,0.73-1.05,1.2-1.51c1.44-1.45,3.47-2.6,4.29-4.33c3.04-6.39,5.78-12.94,8.42-19.51
	C241.86,537.33,242.03,535.01,242.38,533.39z M339.62,155.62c-0.7-6.63-1.86-11.74-7.2-14.58c-3.24-1.72-4.53-0.85-4.98,2.77
	c-0.73,5.84-1.61,11.66-2.47,17.48c-0.71,4.79-1.57,9.57-2.16,14.38c-0.1,0.85,0.58,2.39,1.26,2.64c1.92,0.72,3.97,0.97,5.97-0.22
	c2.62-1.56,4.94-3.49,5.75-6.45C337.33,165.99,338.53,160.25,339.62,155.62z M252.21,529.5c-0.42-0.08-0.84-0.17-1.26-0.25
	c-0.39,0.76-0.97,1.48-1.15,2.28c-1.73,7.77-3.59,15.52-5,23.35c-0.6,3.33-0.73,6.93-0.15,10.25c0.69,3.95,4.92,4.97,7.77,2.1
	c1.43-1.44,2.84-3.23,3.45-5.12c3.01-9.37,5.8-18.82,8.5-28.29c0.22-0.78-0.79-1.91-1.23-2.87c-0.62,0.74-1.58,1.39-1.81,2.24
	c-2.01,7.34-3.77,14.75-5.88,22.06c-0.85,2.97-2.26,5.8-3.67,8.56c-0.39,0.77-1.88,1.64-2.57,1.44c-0.96-0.28-1.77-1.44-2.37-2.39
	c-0.31-0.49-0.12-1.36,0.01-2.03c1.77-8.91,3.61-17.8,5.32-26.72C252.45,532.63,252.21,531.04,252.21,529.5z M211.7,187.9
	c5.16-2.82,5.34-2.77,8.26,1.8c0.09,0.15,0.16,0.31,0.27,0.44c0.96,1.13,1.36,3.66,3.56,2.12c2.23-1.56-0.08-2.87-0.84-4.03
	c-6.05-9.08-12.22-18.08-18.26-27.17c-0.9-1.35-1.58-2.09-3.28-1.39c-1.82,0.75-1.61,1.88-1.07,3.33c1.75,4.7,3.63,9.37,5.1,14.15
	c1.91,6.2,3.44,12.51,5.26,18.74c0.23,0.78,1.21,1.33,1.84,1.99c0.46-0.88,1.11-1.72,1.31-2.65c0.14-0.68-0.31-1.49-0.54-2.24
	C212.79,191.28,212.23,189.57,211.7,187.9z M406.13,195.18c-1.72,2.3-3.21,4.66-5.08,6.67c-0.87,0.94-2.45,1.21-3.71,1.78
	c-0.61-1.43-1.47-2.81-1.75-4.29c-0.19-1.01,0.27-2.25,0.74-3.25c1.06-2.27,2.04-4.65,3.51-6.65c3.11-4.25,6.41-8.39,9.85-12.38
	c1.34-1.56,3.19-2.75,5.46-0.98c0.44,0.35,1.48-0.07,2.24-0.13c-0.23-0.75-0.23-1.73-0.72-2.21c-2.22-2.15-6.23-2.3-9.05,0.29
	c-7.32,6.72-12.71,14.81-15.75,24.36c-0.1,0.33-0.18,0.67-0.21,1.02c-0.29,3.03,1.8,6.07,4.94,7.19c3.14,1.12,5.59,0.14,7.53-2.84
	c1.55-2.38,3.32-4.63,4.8-7.06c0.43-0.7,0.6-2.17,0.18-2.64c-1.13-1.26-2.6-2.26-4.06-3.17c-0.39-0.24-1.64,0.08-1.75,0.39
	c-0.19,0.57-0.02,1.49,0.37,1.97C404.25,193.96,405.13,194.43,406.13,195.18z M228.78,169.18c0.33-0.16,0.65-0.33,0.98-0.49
	c2.07,3.33,4.06,6.71,6.22,9.98c1.38,2.09,2.9,4.11,4.58,5.96c0.5,0.55,1.77,0.41,2.68,0.59c-0.18-0.84-0.13-1.83-0.58-2.49
	c-3.39-5-6.95-9.9-10.28-14.94c-0.58-0.87-0.71-2.34-0.48-3.4c0.88-4.01-0.42-7.57-2.11-11c-0.51-1.04-1.82-2.22-2.88-2.34
	c-1.94-0.22-4.06,0.05-5.88,0.73c-0.38,0.14-0.12,3.04,0.42,4.45c3.81,10.03,7.76,20.01,11.67,30.01c0.13,0.32,0.17,0.79,0.4,0.93
	c0.53,0.31,1.29,0.77,1.72,0.59c0.45-0.19,0.86-1.06,0.84-1.61c-0.03-0.63-0.59-1.22-0.86-1.85
	C233.06,179.26,230.92,174.22,228.78,169.18z M287.33,555.5c3.65-1.08,6.3-3.02,6.7-6.92c0.23-2.23,0.31-4.51,0.16-6.75
	c-0.34-4.93-2.24-6.54-7.11-6.6c-1.7-0.02-2.34,0.72-2.4,2.3c-0.31,8.46-0.67,16.92-0.94,25.38c-0.09,2.86-0.12,5.74,0.14,8.58
	c0.09,0.93,1.19,1.77,1.83,2.65c0.54-0.92,1.52-1.83,1.55-2.76C287.41,566.17,287.33,560.96,287.33,555.5z M220.64,515.98
	c1.29,0.48,2.24,1.03,3.24,1.16c1.36,0.18,2.65-0.99,1.71-1.9c-1.43-1.39-3.54-2.37-5.51-2.78c-0.74-0.16-2.24,1.58-2.83,2.74
	c-0.97,1.9-1.34,4.1-2.22,6.06c-4.08,9.17-8.28,18.29-12.33,27.48c-0.41,0.94-0.54,2.92-0.1,3.17c2.07,1.17,4.36,1.97,6.63,2.71
	c0.42,0.14,1.13-0.57,1.7-0.89c-0.31-0.56-0.49-1.34-0.96-1.64c-1.36-0.85-2.84-1.5-4.35-2.27c2.51-5.52,4.96-10.91,7.41-16.31
	c0.17,0.25,0.34,0.5,0.52,0.75c1.32-0.26,3.53-0.16,3.82-0.85c1.04-2.53-1.9-2.07-2.97-2.95
	C216.49,525.58,218.53,520.85,220.64,515.98z M334.42,534.9c1.43,0,2.67,0.19,3.8-0.07c0.66-0.16,1.16-1.03,1.73-1.58
	c-0.49-0.49-0.91-1.22-1.5-1.4c-0.97-0.3-2.05-0.35-3.08-0.33c-4.1,0.1-5.07,1.45-3.98,5.39c0.62,2.25,1.28,4.49,1.82,6.75
	c1.89,7.98,3.7,15.99,5.67,23.95c0.21,0.87,1.36,2.2,1.97,2.14c2.12-0.19,4.22-0.8,6.26-1.47c0.5-0.17,0.73-1.18,1.08-1.8
	c-0.58-0.27-1.19-0.83-1.73-0.77c-1.59,0.17-3.16,0.59-4.98,0.96c-1.27-5.9-2.51-11.67-3.77-17.54c1.11-0.25,2.04-0.27,2.75-0.68
	c0.63-0.37,1.01-1.17,1.51-1.78c-0.69-0.4-1.35-1.06-2.07-1.12c-0.97-0.08-1.97,0.32-3.16,0.56
	C335.95,542.3,335.2,538.7,334.42,534.9z M269.63,143.01c1.57,0.14,2.79,0.41,3.97,0.28c0.61-0.06,1.49-0.75,1.6-1.29
	c0.1-0.46-0.64-1.5-1.16-1.61c-1.67-0.37-3.41-0.57-5.13-0.59c-1.8-0.03-2.65,1.1-2.6,2.86c0.03,1.04,0.15,2.08,0.29,3.1
	c0.48,3.51,0.99,7.02,1.49,10.53c0.94,6.6,1.83,13.21,2.9,19.79c0.15,0.9,1.2,2.34,1.84,2.34c2.13,0.01,4.29-0.42,6.39-0.92
	c0.5-0.12,0.79-1.13,1.17-1.73c-0.56-0.33-1.13-0.96-1.68-0.94c-1.54,0.04-3.07,0.35-4.99,0.6c-0.71-5.99-1.41-11.93-2.02-17.02
	c1.83-1.2,4.2-2.23,4.09-2.76c-0.58-2.9-3.12-0.64-4.89-1.43C270.5,150.65,270.08,146.99,269.63,143.01z M354.76,149.8
	c-2.45,9.73-4.99,19.83-7.54,29.99c-0.62-0.14-0.96-0.31-1.28-0.27c-0.84,0.1-1.67,0.29-2.5,0.44c0.52,0.77,0.88,1.87,1.61,2.24
	c1.45,0.73,3.07,1.27,4.67,1.49c1.14,0.15,3.14-0.02,3.4-0.63c0.75-1.79-1.08-2.13-2.32-2.67c-0.13-0.06-0.18-0.27-0.28-0.42
	c2.35-10.15,4.71-20.31,7.04-30.34c0.89,0,1.16,0.05,1.39-0.01c0.86-0.23,1.7-0.5,2.55-0.75c-0.62-0.76-1.09-1.83-1.89-2.2
	c-1.06-0.49-2.39-0.66-3.56-0.55c-1.07,0.1-2.09,0.76-3.14,1.17C353.49,148.09,354.07,148.87,354.76,149.8z M270.91,537.18
	c-0.77,9.8-1.56,19.64-2.32,29.49c-0.11,1.39-0.75,1.66-2.08,1.5c-0.64-0.08-1.37,0.65-2.05,1.01c0.48,0.55,0.87,1.43,1.46,1.59
	c1.74,0.47,3.56,0.9,5.35,0.89c1.16-0.01,2.32-0.8,3.48-1.25c-0.92-0.73-1.84-1.45-2.76-2.19c-0.12-0.1-0.21-0.25-0.49-0.58
	c0.73-9.57,1.49-19.33,2.2-29.1c0.1-1.34,0.44-2.07,2.02-1.99c0.56,0.03,1.16-0.86,1.75-1.32c-0.54-0.57-1.01-1.54-1.62-1.63
	c-1.52-0.23-3.15-0.27-4.65,0.04c-0.92,0.19-1.69,1.14-2.53,1.75C269.39,535.97,270.12,536.55,270.91,537.18z M374.17,521.31
	c0.41,0.69,0.74,1.19,1.02,1.72c4.62,9,9.21,18.03,13.91,26.99c0.45,0.86,1.96,2.07,2.4,1.87c1.57-0.73,0.9-2.11,0.28-3.31
	c-2.21-4.22-4.39-8.45-6.62-12.65c-2.75-5.18-5.53-10.33-8.34-15.57c1.31-0.55,2.35-0.81,3.15-1.39c0.42-0.3,0.65-1.2,0.56-1.77
	c-0.05-0.34-0.99-0.92-1.32-0.8c-3.1,1.08-6.17,2.24-9.19,3.52c-0.44,0.19-0.57,1.1-0.85,1.68c0.61,0.21,1.23,0.64,1.81,0.58
	C371.98,522.07,372.95,521.66,374.17,521.31z M246.13,147.09c1.55,5.33,3.13,10.72,4.66,16.12c1.44,5.07,2.79,10.18,4.31,15.23
	c0.24,0.79,1.19,1.37,1.8,2.05c0.38-0.94,0.81-1.86,1.12-2.82c0.09-0.27-0.18-0.65-0.28-0.98c-1.67-5.64-3.35-11.28-5.01-16.92
	c-1.29-4.36-2.56-8.73-3.86-13.18c1.41-0.34,2.48-0.43,3.38-0.87c0.45-0.23,0.73-1.07,0.8-1.67c0.03-0.26-0.72-0.9-1.04-0.85
	c-3.33,0.47-6.66,1.01-9.96,1.65c-0.41,0.08-0.69,0.85-1.03,1.3c0.45,0.32,0.87,0.85,1.36,0.91
	C243.49,147.18,244.62,147.09,246.13,147.09z"/>
<path d="M318.76,500.73c-0.28,0.89-0.68,1.76-0.82,2.66c-0.41,2.54-1.94,3.21-4.35,2.71c0.48-5.68,0.96-11.37,1.44-17.06
	c-0.13-0.01-0.25-0.02-0.38-0.03c-0.62,5.66-1.23,11.32-1.89,17.39c-6.6,0.28-13.03,0.55-19.46,0.82c0.01,0.11,0.02,0.22,0.03,0.33
	c6.2,0,12.4,0,18.6,0c0.03,0.12,0.05,0.24,0.08,0.37c-2.84,0.33-5.67,0.66-8.51,0.99c0.02,0.14,0.03,0.28,0.05,0.43
	c2.66-0.17,5.31-0.33,7.97-0.5c0,0.28,0.01,0.56,0.01,0.84c-14.8,1.02-29.61,2.81-44.36-1.22c2.64,0.2,5.27,0.4,7.91,0.6
	c0.01-0.16,0.03-0.32,0.04-0.48c-2.98-0.4-5.97-0.78-8.95-1.23c-1.01-0.15-2.22-0.2-2.96-0.78c-4-3.13-8.01-6.16-9.26-11.68
	c-1.85-8.17-4.16-16.23-6.29-24.33c-0.04-0.14-0.18-0.25-0.76-1.01c0.25,2.11,0.36,3.57,0.61,5.01c0.26,1.53,0.67,3.04,0.97,4.57
	c0.67,3.4,1.1,6.85,2,10.19c1.5,5.59,3.04,11.19,5.02,16.61c1.6,4.36,4.64,7.5,9.74,7.76c5.7,0.29,11.4,0.77,17.11,0.82
	c15.36,0.14,30.72,0.17,46.08,0.11c5.18-0.02,10.24-0.94,12.93-6.11c1.52-2.93,2.41-6.18,3.58-9.29c-0.25-0.2-0.49-0.4-0.74-0.6
	c-0.7,0.42-1.47,0.76-2.1,1.28c-1.67,1.38-3.23,2.9-4.92,4.24c-1.74,1.37-3.54,0.79-3.82-1.38c-0.18-1.41,0.29-2.95,0.64-4.39
	c1.07-4.36,2.44-8.65,3.28-13.05c1.22-6.37,2.06-12.82,3.16-19.22c0.1-0.6,0.87-1.09,1.33-1.63c0.18,0.65,0.59,1.34,0.49,1.95
	c-1.75,11.27-2.71,22.68-6.27,33.61c-0.25,0.78-0.18,1.67-0.26,2.51c0.31,0.05,0.62,0.1,0.94,0.15c2.27-12.55,4.54-25.1,6.87-37.96
	c1.19,0.07,2.7,0.16,4.21,0.25c0.02-0.12,0.04-0.24,0.06-0.36c-1.44-0.26-2.88-0.53-4.61-0.85c0.71-4.51,1.41-8.9,2.1-13.3
	c-0.13-0.02-0.25-0.04-0.38-0.06c-0.5,2.39-0.71,4.89-1.58,7.14c-0.76,1.96,1.09,4.89-2.66,6.49c0.92-6.51,1.75-12.42,2.59-18.34
	c-0.2-0.03-0.39-0.06-0.59-0.08c-0.93,5.65-1.85,11.3-2.78,16.96c-0.12-0.02-0.24-0.04-0.35-0.05c2.71-19.98,5.41-39.97,8.12-59.95
	c0.08,0,0.15,0,0.23,0c-0.29,4.26-0.59,8.51-0.88,12.77c0.27,0.01,0.53,0.03,0.8,0.04c0.92-11.33,1.84-22.65,2.77-33.98
	c-0.25-0.03-0.51-0.06-0.76-0.08c-0.23,2.25-0.46,4.5-0.69,6.75c-0.14-0.01-0.29-0.02-0.43-0.02c0.22-4.13,0.43-8.26,0.65-12.4
	c0.14,0,0.28,0,0.42-0.01c0.11,0.97,0.21,1.93,0.32,2.9c3.24-21.33,2.88-42.9,4.35-64.33c0.34,0,0.68-0.01,1.03-0.01
	c0.08,1.27,0.17,2.54,0.25,3.81c0.07,0,0.13,0.01,0.2,0.01c0.25-1.94,0.5-3.88,0.77-6.02c1.62,0,3.22,0,4.92,0
	c0,5.14,0,10.21,0,15.28c0.03,0,0.07,0.01,0.1,0.01c0.31-5.53,0.61-11.05,0.93-16.72c0.87-0.11,1.69-0.22,2.84-0.37
	c-0.66-0.4-1.1-0.68-1.6-0.99c2.67-0.35,3.22,0.05,3.1,2.86c-0.37,8.58-0.76,17.17-1.3,25.74c-1.24,19.39-2.17,38.82-3.98,58.16
	c-1.89,20.27-4.46,40.47-7.09,60.66c-1.57,12.02-3.63,23.99-5.88,35.9c-0.99,5.24-2.64,10.42-4.66,15.36
	c-1.27,3.11-3.55,5.91-5.81,8.48c-2.72,3.11-6.78,2.87-10.46,2.88c-14.32,0.06-28.64-0.01-42.96-0.14
	c-6.94-0.07-13.87-0.4-20.81-0.59c-6.71-0.18-10.67-4.17-12.45-10.02c-2.36-7.77-4.34-15.7-5.82-23.69
	c-3-16.27-5.84-32.58-8.19-48.95c-1.6-11.15-2.39-22.42-3.3-33.65c-1.25-15.39-2.41-30.79-3.34-46.2
	c-0.71-11.86-0.99-23.74-1.48-35.61c-0.11-2.77-0.43-5.54-0.39-8.31c0.01-0.87,0.84-1.73,1.3-2.59c0.64,0.74,1.74,1.42,1.85,2.23
	c0.46,3.43,0.7,6.9,0.89,10.36c0.76,13.68,1.48,27.37,2.22,41.06c0.02,0.39,0.12,0.78,0.42,1.16c-0.44-17.56-1.9-35.13,0.81-52.59
	c0.25,0,0.5,0,0.76,0c0,1.43,0,2.85,0,4.01c0.66-0.66,1.38-1.37,2.09-2.08c0.88,0.78,1.68,1.69,2.67,2.31
	c1.96,1.22,3.78,2.44,3.43,4.05c0.18-9.24,0.36-8.14,8.39-9.26c3.86-0.54,5.64,0.71,6.44,4.56c0.19,0.93,0.37,1.87,0.41,2.81
	c0.43,9.34,0.81,18.67,1.24,28.01c0.13,2.78,0.33,5.56,0.51,8.34c0.15-0.01,0.29-0.02,0.44-0.02c-0.41-9.03-0.82-18.07-1.25-27.38
	c2.99,1.03,5.55,1.91,8.1,2.79c-1.89-1.6-3.97-2.78-6.13-3.79c-1.61-0.75-2.34-1.73-2.21-3.61c0.15-2.15,0.01-4.34-0.2-6.49
	c-0.22-2.28-0.71-5.02-3.26-5.35c-3.25-0.43-6.72-0.28-9.91,0.42c-1.49,0.33-2.55,2.57-3.86,4.01c-1.36-0.52-3.08-1.19-4.8-1.85
	c-1.3-3.92-0.03-6.02,3.92-6.25c4.73-0.27,9.48-0.38,14.21-0.62c2.32-0.12,4.63-0.52,6.94-0.5c1.54,0.01,3.16,0.34,4.59,0.91
	c1.11,0.44,1.79,1.51,3.13,0.11c0.55-0.57,2.16-0.15,3.28-0.15c3.99-0.01,7.98,0.01,11.97-0.02c0.65,0,1.3-0.19,1.91-0.78
	c-6,0-12,0-18.01,0c0-0.08,0-0.16,0.01-0.24c8.86,0,17.72,0,26.58,0c0,0.14,0,0.28,0,0.41c-1.31,0.09-2.62,0.19-3.92,0.28
	c0.01,0.08,0.01,0.16,0.02,0.25c6.57,0.29,13.13,0.58,19.7,0.86c-0.01,0.28-0.02,0.55-0.03,0.83c-5.53,0-11.06,0-16.59,0
	c-0.02,0.07-0.04,0.14-0.05,0.22c0.47,0.1,0.94,0.26,1.41,0.29c4.33,0.23,8.66,0.57,13,0.58c2.39,0.01,3.42,0.72,2.86,3.32
	c-5.63,0-11.31,0-16.99,0c0,0.08,0,0.16-0.01,0.23c5.64,0.28,11.28,0.56,17.09,0.85c0,3.8,0,7.5,0,11.2c0.08,0,0.16,0,0.24,0.01
	c0.28-3.68,0.56-7.37,0.87-11.41c2.71,0.21,5.26,0.42,8.39,0.66c0,7.1,0,14.07,0,21.04c0.24,0,0.48,0,0.72,0c0-6.86,0-13.72,0-20.77
	c0.99,0.08,1.82,0.15,2.91,0.25c0.35,2.89,0.71,5.76,1.06,8.63c0.15-0.01,0.29-0.02,0.44-0.03c-0.19-2.68-0.38-5.37-0.6-8.53
	c0.79,0.51,1.45,0.7,1.64,1.1c1.14,2.48,2.94,4.95,3.09,7.52c0.6,9.95,0.67,19.93,0.9,29.9c0.02,0.68-0.29,1.36-0.45,2.04
	c-0.27-0.01-0.54-0.03-0.82-0.04c0-3.5,0-6.99,0-10.49c-0.19,0-0.37,0-0.56,0c-0.1,1.89-0.21,3.77-0.31,5.66
	c-0.02,0-0.04-0.01-0.06-0.01c0-6.8,0-13.6,0-20.4c-0.11-0.01-0.23-0.02-0.34-0.03c-0.35,8.15-0.71,16.31-1.07,24.66
	c-4.23-1.07-8.29-2.09-12.36-3.12c-0.03,0.1-0.06,0.2-0.09,0.3c0.19,0.12,0.37,0.28,0.58,0.35c1.84,0.68,4.47,0.84,5.3,2.15
	c0.87,1.36-0.09,3.83-0.11,5.81c-0.05,5.36-0.02,10.72,0.05,16.11c0.35-7.26,0.7-14.51,1.07-22.25c1.92,0.57,3.76,0.9,5.37,1.7
	c0.72,0.36,1.33,1.63,1.37,2.52c0.16,3.42,0.06,6.85,0.4,10.3c0.25-4.06,0.49-8.13,0.74-12.19c0.25-0.01,0.49-0.02,0.74-0.03
	c0.07,0.67,0.26,1.35,0.21,2.01c-1.53,21.26-3.02,42.53-4.66,63.79c-0.93,12.01-2.13,24.01-3.21,36.01
	c-0.03,0.35,0.06,0.74-0.08,1.03c-0.34,0.69-0.78,1.33-1.17,1.99c-0.23-0.73-0.72-1.48-0.66-2.19c0.74-10.11,1.56-20.21,2.34-30.32
	c0.08-1.03,0.01-2.07-0.31-3.13c-0.34,4.37-0.67,8.73-1.02,13.1c-0.54,6.64-1.04,13.29-1.65,19.93c-0.32,3.54-0.37,7.09-0.59,10.63
	c-0.22,3.71-0.48,7.44-0.99,11.12c-0.6,4.36-1.5,8.68-2.21,13.03c-0.25,1.53-0.32,3.09-0.48,4.63
	C318.94,498.88,318.85,499.8,318.76,500.73z M239.85,418.85c-0.14,0.01-0.29,0.03-0.43,0.04c0.68,5.23,1.36,10.46,2.05,15.8
	c-1.36-0.31-2.4-0.55-3.44-0.79c-0.3,0.25-0.6,0.5-0.9,0.75c6.04,0.42,5.19,4.8,5.85,8.29c0.72,3.76,1.39,7.52,2.08,11.28
	c0.3-0.05,0.6-0.1,0.9-0.14c-0.57-5.47-1.14-10.94-1.74-16.73c5.12,2.08,10.1,4.04,15.01,6.17c0.7,0.3,1.33,1.42,1.46,2.24
	c1.64,10.6,3.14,21.23,4.79,31.84c0.66,4.27,1.59,8.5,2.4,12.75c0.12-0.03,0.23-0.05,0.35-0.08c-2.61-16.76-5.23-33.51-7.75-49.71
	c-1.69-0.11-2.8,0.05-3.73-0.28c-3.76-1.3-7.45-2.82-11.2-4.12c-1.31-0.45-1.82-1.08-2.11-2.48
	C242.38,428.7,241.07,423.79,239.85,418.85z M297.97,455.45c0.3-0.01,0.6-0.02,0.9-0.03c0,2.73,0,5.46,0,8.18
	c0.92-2.76,1.68-5.52,1.68-8.28c0-2.84-0.74-5.68-1.16-8.51c-0.12-0.02-0.25-0.04-0.37-0.06c0,2.55,0,5.09,0,7.64
	c-0.31,0.01-0.62,0.03-0.93,0.04c-0.12-1.45-0.24-2.9-0.37-4.35c-0.12,0-0.24,0-0.36,0.01c-0.1,1.32-0.2,2.65-0.35,4.53
	c-7.2-2.31-14.19-4.49-21.12-6.84c-0.72-0.24-1.38-1.44-1.57-2.31c-0.68-3.09-1.15-6.23-1.82-10.03
	c1.05,10.02,2.04,19.34,3.02,28.67c-0.12,0.01-0.25,0.02-0.37,0.03c0-4.81,0-9.61,0-14.66c6.46,1.63,12.78,3.36,19.17,4.79
	c2.3,0.51,2.81,1.6,2.74,3.73c-0.15,4.03-0.04,8.07-0.04,12.11c0.03,0.01,0.06,0.02,0.08,0.04
	C297.39,465.24,297.68,460.34,297.97,455.45z M309.53,449.03c0.26-0.02,0.52-0.05,0.78-0.07c0.76-24.47,1.52-48.94,2.28-73.42
	c-0.16,0-0.33-0.01-0.49-0.01C311.25,400.03,310.39,424.53,309.53,449.03z M348.07,427.6c3.49-17.65,5.18-35.51,6.35-53.43
	C352.31,391.98,350.19,409.79,348.07,427.6z M306.94,348.14c-3.01,4.01-5.79,7.71-8.56,11.41c5.02-5.19,10.06-10.34,13.28-16.88
	c-0.17-0.14-0.34-0.27-0.52-0.41c-1.37,1.75-2.73,3.5-4.02,5.15c-5.52-2.37-10.79-4.63-16.05-6.89c-0.09,0.2-0.17,0.4-0.26,0.6
	C296.05,343.41,301.29,345.69,306.94,348.14z M327.05,410.43c0.21,0.01,0.43,0.03,0.64,0.04c1-13.98,2.01-27.95,3.01-41.93
	c-0.21-0.01-0.43-0.03-0.64-0.04C329.06,382.47,328.05,396.45,327.05,410.43z M267.79,414.78c0.12-0.36,0.23-0.53,0.21-0.68
	c-0.08-0.6-0.17-1.19-0.31-1.78c-1.62-6.67-2.22-13.43-2.4-20.31c-0.16-6.15-1.33-12.27-2.06-18.4c-0.3,2.01-0.14,3.97,0.04,5.94
	c0.48,5.15,1.23,10.3,1.39,15.46C264.87,401.7,265.86,408.21,267.79,414.78z M356.95,326.11c-0.21-0.03-0.42-0.06-0.64-0.09
	c-0.53,12.7-1.05,25.4-1.58,38.11c0.25,0.01,0.5,0.02,0.74,0.03C355.97,351.47,356.46,338.79,356.95,326.11z M319.56,431.22
	c-0.2-0.01-0.4-0.02-0.6-0.04c-0.65,11.48-1.3,22.96-1.95,34.43c0.19,0.01,0.38,0.02,0.58,0.04
	C318.25,454.18,318.91,442.7,319.56,431.22z M347.4,417.15c-0.26-0.02-0.51-0.04-0.77-0.05c-1.15,8.35-2.29,16.71-3.44,25.06
	c0.25,0.03,0.5,0.07,0.74,0.1C345.09,433.89,346.24,425.52,347.4,417.15z M281.15,509.04c0.02,0.16,0.04,0.32,0.06,0.48
	c5.35,0,10.69,0,16.04,0c0-0.16,0-0.32-0.01-0.48C291.88,509.04,286.51,509.04,281.15,509.04z M328.44,351.09
	c0.14-0.04,0.27-0.07,0.41-0.11c0-7.02,0-14.05,0-21.07c-0.14-0.01-0.27-0.01-0.41-0.02C328.44,336.96,328.44,344.03,328.44,351.09z
	 M321.72,404.1c0.15,0.01,0.29,0.02,0.44,0.02c0.37-6.78,0.73-13.56,1.1-20.34c-0.14-0.01-0.29-0.01-0.43-0.02
	C322.45,390.54,322.08,397.32,321.72,404.1z M347,479.07c-0.23-0.05-0.46-0.11-0.69-0.16c-0.77,4.28-1.54,8.57-2.31,12.85
	c0.22,0.04,0.44,0.08,0.66,0.12C345.44,487.61,346.22,483.34,347,479.07z M246.5,337.57c-0.05,0-0.1,0-0.15,0c0,5.85,0,11.7,0,17.55
	c0.05,0,0.1,0,0.15,0C246.5,349.27,246.5,343.42,246.5,337.57z M252.1,395.59c0.15-0.03,0.31-0.05,0.46-0.08
	c-0.77-4.6-1.55-9.2-2.32-13.81c-0.15,0.02-0.3,0.05-0.45,0.07C250.56,386.39,251.33,390.99,252.1,395.59z M247.46,362.45
	c-0.12,0.01-0.25,0.03-0.37,0.04c0.58,4.83,1.16,9.66,1.75,14.49c0.16-0.02,0.32-0.04,0.48-0.06
	C248.7,372.1,248.08,367.28,247.46,362.45z M332.7,324.5c-0.21,0.02-0.42,0.05-0.63,0.07c0.27,4.69,0.53,9.39,0.8,14.08
	c0.16-0.01,0.33-0.02,0.49-0.02C333.14,333.92,332.92,329.21,332.7,324.5z M360.58,349.69c0.02-0.02,0.04-0.05,0.06-0.07
	c0.22-3.66,0.43-7.32,0.65-10.98c-0.24-0.01-0.47-0.01-0.71-0.02C360.58,342.3,360.58,346,360.58,349.69z M306.93,503.88
	c0.22,0.01,0.44,0.03,0.66,0.04c0.18-3.13,0.37-6.27,0.55-9.4c-0.17-0.01-0.33-0.02-0.5-0.03
	C307.4,497.62,307.17,500.75,306.93,503.88z"/>
<path d="M271.63,232.87c-1.86,0-3.72,0-5.58,0c-0.02-0.17-0.04-0.35-0.06-0.52c0.97-0.2,1.93-0.54,2.91-0.58
	c6.24-0.24,12.48-0.42,18.73-0.6c5.02-0.14,10.04-0.38,15.06-0.33c2.34,0.02,4.67,0.62,7.01,0.96c0,0.34,0.01,0.69,0.01,1.03
	c-4.18,0.21-8.35,0.42-12.53,0.63c0,0.13,0.01,0.27,0.01,0.4c9.27,0,18.53-0.06,27.8,0.03c3.54,0.03,7.16,0,10.58,0.73
	c6.96,1.5,11.93,6.25,15.23,12.12c3.84,6.83,6.84,14.16,9.82,21.44c1.83,4.47,3.9,8.26,8.98,9.58c0.62,0.16,1.44,1.62,1.28,2.25
	c-0.22,0.88-1.19,2.03-2.01,2.19c-1.93,0.38-3.97,0.34-5.96,0.31c-11.89-0.14-23.78-0.33-35.66-0.51c-0.59-0.01-1.18-0.13-1.76-0.7
	c14.59,0,29.18,0,43.77,0c-8.57-2.64-17.29-2.13-25.99-1.87c-2.95,0.09-5.9,0.06-8.84,0.11c-15.42,0.24-30.84,0.46-46.25,0.74
	c-2.21,0.04-4.41,0.34-6.59,0.94c12.48,0,24.96,0,37.44,0c0,0.18,0,0.37,0,0.56c-15.84,0.19-31.68,0.38-47.52,0.57
	c-11.8,0.14-23.59,0.44-35.39,0.32c-3.36-0.03-6.71-1.3-10.07-1.99c-0.34-0.07-0.71-0.01-1.22-0.01c0.89,1.23,0.89,1.23,7.39,2.17
	c-1.93,0-3.87,0.15-5.77-0.07c-0.87-0.1-2.4-1.04-2.35-1.36c0.21-1.13,0.72-2.56,1.6-3.13c0.98-0.63,2.48-0.59,3.76-0.61
	c5.38-0.06,10.75-0.02,16.13-0.53c-5.4,0-10.79,0-15.91,0c2.4-5.19,5.05-10.1,6.97-15.28c2.13-5.73,4.97-10.97,8.17-16.16
	c5.72-9.28,14.21-12.39,24.48-12.21c0.76,0.01,1.53,0,2.29,0C271.6,233.3,271.62,233.09,271.63,232.87z M332.15,274.55l-0.05-0.05
	c-2.45,0.72-4.88,1.54-7.37,2.11c-1.82,0.42-3.71,0.51-5.58,0.75c0.04,0.24,0.07,0.48,0.11,0.72c15.63,0,31.26,0,46.89,0
	c-5.87-1.2-11.64-2.4-12.61-10.4c0.91,1.63,1.58,2.82,2.25,4.02c0.15-0.07,0.29-0.13,0.44-0.2c-1.12-2.51-2.24-5.01-3.36-7.52
	c0.26-0.13,0.52-0.25,0.78-0.38c1.74,3.48,3.48,6.97,5.22,10.45c0.17-0.08,0.34-0.17,0.51-0.25c-1.48-3.21-2.97-6.43-4.63-10.02
	c1.44,0.11,2.34,0.18,4.04,0.32c-1.04-0.66-1.58-1.26-1.9-1.16c-2.01,0.64-2.77-0.5-3.54-2.04c-1.7-3.4-3.49-6.77-5.36-10.09
	c-0.89-1.57-2.04-2.99-3.1-4.46c-0.01-0.01-0.41,0.27-0.63,0.41c-0.08,0.08-0.16,0.15-0.24,0.23c-2.7-2.29-5.36-4.64-8.12-6.84
	c-0.77-0.61-1.84-0.9-2.81-1.2c-1.16-0.35-2.38-0.49-3.53-0.85c-0.87-0.27-1.65-0.96-2.52-1.07c-2.62-0.32-5.27-0.46-7.91-0.66
	c-0.03,0.14-0.07,0.28-0.1,0.43c0.66,0.24,1.32,0.47,2.23,0.79c-0.66,0.31-1.05,0.49-2.14,1c2.67,0.68,4.69,1.2,6.26,1.6
	c0.09,1.15-0.13,2.48,0.27,2.72c2.79,1.63,3.09,1.56,3.72,3.63c1.14,3.77,2.02,7.61,3.08,11.68c-3.32,0.36-2.34-2.24-3.33-3.58
	c0,1.21,0,2.2,0,3.14c-2.52,0.55-3.65-0.25-3.81-2.8c-0.15-2.47-0.75-4.92-1.15-7.38c-0.16,0.02-0.33,0.04-0.49,0.06
	c0.39,3.17,0.79,6.35,1.25,10.1c-4.08-1.71-9.16,1.05-11.72-4.23c0.33,0.82,0.65,1.65,1.09,2.75c-9.33-0.75-18.37-1.48-27.41-2.21
	c0.29,0.57,0.61,0.67,0.95,0.71c8.52,1.01,17.03,2.05,25.56,2.99c1.61,0.18,2.54,0.64,2.51,2.51c-3.51-0.25-6.85-0.48-10.61-0.74
	c4.33,2.3,9.34,0.11,12.92,3.05c1.14-2.24,3.09,0.09,4.62-0.54c1.09-0.44,3.32-0.72,3.27,1.97c0.57-2.91,2.46-1.21,4.14-1.53
	c0.31,3.3,0.55,6.39,0.93,9.46C331.25,272.85,331.8,273.69,332.15,274.55z M287.89,277.43c0.01,0.09,0.02,0.18,0.02,0.27
	c1.03,0.06,2.05,0.14,3.08,0.19c7.38,0.36,14.75,0.74,22.13,1.01c0.7,0.03,1.9-0.5,2.07-1.03c1.03-3.2,1.83-6.48,2.71-9.74
	c-1.31,2.08-2.56,4.22-3.34,6.52c-0.87,2.58-2.5,2.9-4.93,2.84C302.39,277.32,295.14,277.43,287.89,277.43z M232.6,274.7
	c1.6-2.1,3.15-3.64,4.09-5.49c1.29-2.53,2.43-5.22,3.03-7.98c0.55-2.5,3.31-4.46,1.56-8.03C238.36,260.44,235.6,267.26,232.6,274.7z
	 M309.85,238.53c-0.03-0.43-0.06-0.86-0.09-1.29c-10.19-2.03-20.31,1.22-30.49,0.25c0.01,0.24,0.01,0.48,0.02,0.72
	c9.6-0.36,19.19-0.73,28.79-1.09c0.02,0.34,0.03,0.68,0.05,1.02c-3.31,0.22-6.62,0.43-9.94,0.65c0.02,0.15,0.03,0.3,0.05,0.46
	C302.11,239,305.98,238.76,309.85,238.53z M262.2,254.63c8.08-1.03,15.53,2.48,23.89,2.06c-7.45-1.26-14.29-2.42-21.68-3.68
	c1.55-1.65,2.53-2.69,3.51-3.73c-0.17-0.14-0.33-0.28-0.5-0.42C265.67,250.79,263.92,252.72,262.2,254.63z M245.04,247.24
	c-0.24,0.48-0.56,1.11-0.63,1.25c3.47,0.96,6.81,1.88,10.31,2.84c-1.09,2.46-2.01,4.52-2.92,6.59c0.1,0.04,0.2,0.08,0.3,0.12
	c1.78-3.12,3.55-6.24,5.2-9.14C253.04,250.86,249.23,248.71,245.04,247.24z M243.56,263.47c0.34,3.31,0.69,6.82,1.05,10.35
	c1.26-0.14,2.3-1.42,1.82-3.15C245.73,268.15,244.51,265.79,243.56,263.47z M231.94,280.06c0.01,0.09,0.02,0.18,0.03,0.27
	c6.92,0,13.83,0,20.75,0c0-0.09,0-0.18-0.01-0.27C245.78,280.06,238.86,280.06,231.94,280.06z M260.26,260.23
	c-3.41,4.5-2.44,9.61,2.44,11.66C258.34,268.46,258.12,264.61,260.26,260.23z M274.15,281.37c0-0.2,0.01-0.41,0.01-0.61
	c-3.21,0-6.42,0-9.63,0c0,0.2,0.01,0.41,0.01,0.61C267.74,281.37,270.94,281.37,274.15,281.37z M237.15,278.55
	c0,0.07,0,0.14-0.01,0.2c5.05,0,10.1,0,15.15,0c0.01-0.07,0.02-0.14,0.02-0.2C247.27,278.55,242.21,278.55,237.15,278.55z
	 M290.17,241.18c-0.06-0.18-0.12-0.36-0.18-0.54c-3.28,1.1-6.56,2.2-9.84,3.3c0.05,0.15,0.1,0.31,0.15,0.46
	C283.59,243.33,286.88,242.25,290.17,241.18z M282.17,277.46c-0.01-0.1-0.02-0.19-0.03-0.29c-3.69,0-7.39,0-11.08,0
	c0,0.1,0,0.19,0,0.29C274.76,277.46,278.46,277.46,282.17,277.46z"/>
<path d="M227.68,288.73c0.1,4.19,2.54,8.34,0.01,13.03c5.42,0,10.78,0,16.15,0c0.01-0.08,0.03-0.15,0.04-0.23
	c-3.75-0.3-7.5-0.75-11.26-0.85c-2.48-0.06-3.42-0.9-3.14-3.42c0.33-2.97,0.38-5.97,1.05-8.93c0,2.49,0,4.97,0,7.46
	c0.18,0,0.35,0.01,0.53,0.01c0-2.58,0.08-5.16-0.03-7.73c-0.09-2.14,1.56-2.57,2.95-3.08c1.6-0.59,2.3,0.65,2.85,1.92
	c0.71,1.66,1.43,3.31,2.45,5.66c-0.91-0.77-1.25-1.07-1.89-1.61c1.28,3.2-1.99,2.62-2.81,3.95c1.49-0.3,3.02-0.61,5.17-1.04
	c0.71-0.53,2.14-1.59,4.02-2.99c0.28,2.5,0.47,4.17,0.65,5.84c0.07-0.02,0.13-0.03,0.2-0.05c0-3.03,0.11-6.06-0.04-9.08
	c-0.1-2.07,0.65-2.76,2.7-2.68c3.38,0.13,6.77,0.19,10.14-0.04c2.46-0.17,3.27,0.96,3.34,3.1c0.04,1.29,0.01,2.58,0.4,3.89
	c0.13-2.24,0.25-4.48,0.42-7.42c-4.8,0-10.3-0.05-15.8,0.08c-0.58,0.01-1.68,1.23-1.6,1.73c0.54,3.36-1.34,4.66-4.45,5.46
	c-0.89-2.23-1.8-4.51-2.85-7.13c1.56-0.24,2.72-0.53,3.89-0.57c9.85-0.39,19.72-1.29,29.55,0.32c0.59,0.1,1.21,0.04,1.82,0.06
	c10.19,0.32,20.38,0.69,30.57,0.94c2.4,0.06,4.8-0.25,7.71-0.42c-0.79,2.52-1.34,4.74-2.24,6.82c-0.22,0.5-1.6,0.73-2.42,0.69
	c-4.14-0.2-8.27-0.54-12.45-0.32c4.74,0.44,9.48,0.89,14.4,1.35c-0.35,1.38-0.65,2.58-1.07,4.21c0.84-0.66,1.52-0.92,1.69-1.37
	c1.18-3.19,3.71-2.64,6.16-2.32c2.23,0.29,4.46,0.62,6.98,0.98c0.11,1.34,0.21,2.67,0.36,4.5c-8.5,0.41-16.82,0.81-25.13,1.21
	c0.01,0.29,0.03,0.57,0.04,0.86c23.2,0,46.4,0,69.61,0c0.02-0.27,0.03-0.55,0.05-0.82c-1.23-0.16-2.47-0.45-3.7-0.46
	c-2.76-0.01-2.82-1.47-1.99-4.15c0.38,1.11,0.58,1.67,0.67,1.92c0.82-0.49,1.72-1.03,2.63-1.58c0.13-2.25,0.28-4.76,0.43-7.27
	c-0.14-0.01-0.27-0.03-0.41-0.04c-0.26,2.23-0.51,4.46-0.85,7.43c-0.58-1.02-0.99-1.39-0.97-1.74c0.16-2.85,0.31-5.72,0.67-8.55
	c0.08-0.64,0.84-1.42,1.48-1.71c1.2-0.53,2.53-0.75,4.26-1.22c-0.09,1.99-0.23,3.92-0.26,5.85c-0.04,3.38-0.11,6.76,0.04,10.13
	c0.09,1.99-0.17,3-2.58,2.98c-18.13-0.12-36.27-0.17-54.4-0.12c-13.79,0.04-27.59,0.22-41.38,0.38c-5.67,0.07-8.29-2.11-9-7.59
	c-0.26,1.35-0.53,2.76-0.76,3.93c1.32,1.08,2.59,2.11,3.86,3.15c-0.07,0.21-0.14,0.42-0.21,0.63c-3.86,0-7.72,0-11.58,0
	c-7.64,0-15.27-0.05-22.91,0.05c-2.03,0.02-2.81-0.7-2.8-2.7c0.01-2.95-0.19-5.9-0.21-8.85c-0.01-0.86,0.3-1.72,0.46-2.58
	C227.17,288.64,227.42,288.69,227.68,288.73z M270.63,300.25c0.01,0.18,0.03,0.36,0.04,0.53c6.96,0,13.92,0,20.87,0
	c-0.01-0.18-0.01-0.36-0.02-0.53C284.56,300.25,277.6,300.25,270.63,300.25z M256.55,300.05c-3.89,0-7.78,0-12.05,0
	C248.65,302.02,252.6,300.84,256.55,300.05z"/>
<path d="M268.57,214.61c-0.76-0.26-1.52-0.52-3.01-1.03c2.19,0,3.62,0.02,5.06,0c11-0.19,21.99-0.46,32.99-0.49
	c1.38,0,2.76,1.25,4.14,1.91c-0.11,0.23-0.22,0.47-0.33,0.7c0.13-0.54,0.27-1.07,0.59-2.35c0.74,1.26,1.15,1.96,1.56,2.65
	c0.11-0.62,0.22-1.26,0.32-1.89c0.23-0.02,0.45-0.04,0.68-0.07c0.31,1.82,0.62,3.64,1,5.88c-11.02,0-21.7,0-32.5,0
	c2.34-4.99,2.34-4.99,8.23-5.77c-2.19,0-4.38-0.06-6.56,0.02c-1.95,0.07-2.78,1.4-2.72,3.13c0.08,2.13-0.91,2.75-2.82,2.58
	c-0.69-0.06-1.39,0.04-2.08,0.04c-3.38,0.03-3.38-0.05-3.36-3.44c0-0.65-0.83-1.3-1.28-1.96L268.57,214.61z"/>
<path d="M268.29,221.47c2.84,0,6.03,0,9.22,0c7.89,0,15.77-0.01,23.66,0c1.65,0,3.3,0.08,4.95,0.05c1.95-0.04,3.69,0.16,4.09,2.63
	c0-0.73,0-1.47,0-2.43c4.63,0,9.1,0,13.57,0c0,0.12,0,0.24,0.01,0.36c-3.71,0-7.41,0-11.45,0c0.08,1.59,0.14,2.8,0.2,4.01
	c-0.14,0.01-0.27,0.02-0.41,0.04c-0.16-0.86-0.33-1.72-0.49-2.58c-0.07-0.01-0.14-0.02-0.2-0.03c0,0.93,0,1.86,0,3.44
	c-11.87,0-23.61,0-34.95,0c0.23-0.42,0.73-1.32,1.44-2.62c-1.37,0.98-2.19,1.9-3.18,2.18c-1.12,0.31-2.41,0.12-3.61-0.02
	c-0.36-0.04-0.76-0.58-0.97-0.99C269.57,224.36,269.06,223.14,268.29,221.47z"/>
<path d="M328.83,205.06c-6.12,0-12.23,0-18.67,0c0.29,2.34,0.51,4.17,0.76,6.17c-3.32,0-6.4,0.11-9.47-0.03
	c-2.64-0.12-5.26-0.52-7.89-0.8c-0.27-2.09-1.31-2.63-3.23-1.71c-0.77,0.37-1.65,0.49-2.48,0.73c-0.42,0-0.84,0-1.25,0
	c0.65-3.8,3.78-3.23,6.23-3.9c-4.12-0.01-8.37-1.18-12.61,1.63c2.24-0.46,4-0.82,5.93-1.21c-0.6,3.31-2.27,5.38-4.36,5.4
	c-0.72,0.01-1.45-0.68-1.92-0.92c-0.9,0.34-1.86,0.83-2.89,1.03c-0.92,0.19-1.9,0.06-2.85,0.07c-3.39,0.03-3.24,0.04-3.13-3.31
	c0.04-1.06-0.91-2.15-1.45-3.32c0.58-0.03,1.56-0.13,2.55-0.13c18.29,0.01,36.58,0.03,54.86,0.07c0.59,0,1.19,0.18,1.78,0.27
	L328.83,205.06z M306.34,205.95c0.05-0.16,0.1-0.33,0.15-0.49c-3.7,0-7.4,0-11.1,0c0,0.16,0,0.33,0,0.49
	C299.04,205.95,302.69,205.95,306.34,205.95z"/>
<path d="M325.2,197.64c-0.37,0.42-0.82,1.23-1.08,1.18c-1.17-0.26-2.26-0.84-3.41-1.19c-11.21-3.4-22.22-1.89-33.08,1.57
	c-1.7,0.54-3.04,2.19-4.55,3.32c0.13,0.2,0.26,0.4,0.38,0.6c-3.62,0-7.23,0-10.89,0c1.29-4.09,0.93-4.64-3.06-5.04
	c8.42-2.6,17.16-2.61,25.85-2.73c8.71-0.12,17.46-1.27,26.13,0.58C322.73,196.51,323.96,197.08,325.2,197.64z"/>
<path d="M332.39,229c-3.34,0-6.26-0.02-9.18,0c-11.01,0.08-22.03,0.24-33.04,0.22c-8.33-0.02-16.65-0.24-24.98-0.46
	c-0.92-0.02-2.62-0.64-2.61-0.89c0.13-1.84,0.47-3.7,1.09-5.44c0.1-0.27,1.96-0.11,2.92,0.16c2.27,0.64,3.74,1.83,1.87,4.49
	c-1.33,0-2.91,0-4.5,0c-0.07,0.15-0.13,0.29-0.2,0.44c0.65,0.21,1.31,0.61,1.96,0.61c9.02,0.03,18.04-0.03,27.07-0.01
	c11.44,0.02,22.89,0.08,34.33,0.11c0.9,0,1.8-0.1,2.12-0.12c-0.65-1.62-1.27-3.16-1.88-4.69c0.27-0.1,0.54-0.21,0.8-0.31
	c0.18,0.69,0.36,1.39,0.65,2.53c0.11-1.09-0.06-1.97,0.3-2.38c0.44-0.5,1.32-0.62,2.48-1.1C331.86,224.42,332.09,226.34,332.39,229z
	"/>
<path d="M311.31,202.72c-7.07,0-13.94,0-20.92,0c1.39-2.74,3.32-4.69,6.78-4.81c2.68-0.09,5.34-0.47,8.02-0.68
	C309.3,196.9,310.98,198.36,311.31,202.72z"/>
<path d="M320.21,288.18c0.53,2.11,0.92,3.63,1.46,5.78c-4.47-0.54-8.37-1.01-12.51-1.51c0.51-1.36,0.8-2.42,1.3-3.38
	c0.68-1.3-0.27-3.99,2.65-3.45c1.52,0.28,2.97,0.92,4.46,1.34c0.2,0.06,0.51-0.38,0.74-0.35c0.68,0.09,1.48,0.13,1.97,0.52
	C320.53,287.3,320.2,288.22,320.21,288.18z"/>
<path d="M334.1,374.1c0.27,28.5-5.18,57.74-6.65,87.28c-0.36-0.03-0.73-0.06-1.09-0.09c1.41-14.68,2.91-29.34,4.21-44.03
	C331.87,402.52,332.99,387.76,334.1,374.1z"/>
<path d="M295.16,193.79c-1.58,0.33-3.15,0.8-4.75,0.95c-6.11,0.6-12.23,1.09-18.34,1.64c-0.51,0.05-1.09,0.1-1.48,0.37
	c-0.77,0.54-1.43,1.23-2.13,1.86c0.79,0.15,1.61,0.21,2.35,0.48c0.65,0.24,1.21,0.72,1.81,1.09c-0.68,1-1.15,2.48-2.08,2.87
	c-1.24,0.52-2.99,0.45-2.72-2.77c-0.99,1.48-1.44,2.16-1.99,2.98c-0.55-3.36,1.22-6.49,4.42-7.57c2.11-0.72,4.34-1.3,6.55-1.49
	c5.52-0.48,11.06-0.73,16.6-1c0.56-0.03,1.14,0.42,1.71,0.64C295.12,193.85,295.16,193.79,295.16,193.79z"/>
<path d="M325.2,197.64c-1.23-0.57-2.46-1.14-3.69-1.71c-4.21-0.56-8.41-1.35-12.64-1.61c-4.02-0.25-8.08,0.07-12.12,0.07
	c-0.53,0-1.06-0.39-1.59-0.6c0,0-0.04,0.06-0.04,0.06c0.53-0.27,1.07-0.79,1.6-0.77c8.89,0.33,17.88-0.37,26.53,2.38
	c4.06,1.29,6.21,3.87,6.1,7c-4.36,1.5-5.1,1.16-5.84-2.26c0.88-0.19,1.69-0.37,2.5-0.55C325.73,198.99,325.46,198.32,325.2,197.64z"
	/>
<path d="M318.76,500.73c0.09-0.92,0.18-1.84,0.27-2.77c1.05-5.58,2.34-11.14,3.08-16.76c0.83-6.32,1.14-12.71,1.68-19.07
	c0.25-0.07,0.51-0.14,0.76-0.21c0.22,0.57,0.69,1.17,0.62,1.7c-1.64,12.33-3.31,24.65-5.05,36.97c-0.24,1.73-0.86,3.42-1.31,5.12
	c-0.2-0.05-0.41-0.09-0.61-0.14C318.4,503.95,318.58,502.34,318.76,500.73z"/>
<path d="M327.52,462.77c-1.76,12.46-3.53,24.92-5.29,37.37c-0.29-0.04-0.59-0.08-0.88-0.13c1.64-12.48,3.28-24.95,4.93-37.43
	C326.68,462.65,327.1,462.71,327.52,462.77z"/>
<path d="M270.63,211.5c-1.87,0-2.88,0-4.12,0c-0.07-1.45-0.14-2.86-0.21-4.27c-0.18-0.03-0.36-0.06-0.54-0.09
	c-0.19,1.44-0.38,2.88-0.56,4.31c-0.24-0.03-0.49-0.06-0.73-0.09c-0.76-1.81-0.37-3.62,0.75-5.24c1.29-1.85,2.97-0.33,4.1,0.13
	C271.93,207.34,269.04,209.61,270.63,211.5z"/>
<path d="M314.74,309.44c2.9,0.22,5.24,0.18,7.47,0.69c0.67,0.15,0.99,1.81,1.7,3.22c-3.21-0.15-5.6-0.27-8.33-0.4
	C315.36,312.01,315.12,311,314.74,309.44z"/>
<path d="M339.79,465.38c-1.65,9.64-3.3,19.27-4.96,28.91c-0.3-0.05-0.6-0.1-0.9-0.15c0.88-4.83,1.76-9.66,2.63-14.49
	c0.85-4.76,1.69-9.52,2.53-14.29C339.32,465.37,339.56,465.38,339.79,465.38z"/>
<path d="M328.75,205.1c0.72,2.01,1.45,4.01,2.22,6.15c-4.38,0.18-4.51,0.01-4.57-5.11c0.77-0.34,1.59-0.7,2.43-1.07
	C328.83,205.06,328.75,205.1,328.75,205.1z"/>
<path d="M331.15,219.65c-3.81,0.37-3.87,0.31-4.51-4.92c1.41,0.13,3.47-0.23,4.02,0.52C331.42,216.28,331.04,218.16,331.15,219.65z"
	/>
<path d="M268.48,214.52c1.82,2.77-1.27,2.37-2.23,3.66c-0.51-1.05-0.92-1.9-1.53-3.15c-0.27,1.86-0.47,3.26-0.67,4.66
	c-0.24-0.03-0.49-0.06-0.73-0.09c0-1.16-0.03-2.33,0.01-3.49c0.04-1.4,0.61-1.99,2.14-1.59c0.98,0.25,2.06,0.07,3.1,0.09
	C268.57,214.61,268.48,214.52,268.48,214.52z"/>
<path d="M287.85,209.41c0.83-0.24,1.72-0.36,2.48-0.73c1.92-0.92,2.96-0.37,3.23,1.71c-2.67,0.32-5.33,0.65-8,0.97
	c-0.05-0.19-0.11-0.38-0.16-0.56C286.22,210.34,287.03,209.88,287.85,209.41z"/>
<path d="M322.48,295.04c1.18,0.26,2.13,0.48,3.43,0.77c0.08,0.71,0.19,1.78,0.3,2.8C322.33,299.86,322.01,299.55,322.48,295.04z"/>
<path d="M290.18,199.66c-1.64,3.68-1.77,3.75-5.74,3.16C285.74,200.34,288.3,200.61,290.18,199.66z"/>
<path d="M316.61,213.46c4.84,0,9.11,0,13.39,0c-0.01,0.25-0.02,0.49-0.03,0.74C325.7,213.96,321.43,213.72,316.61,213.46z"/>
<path d="M361.95,285.7c-0.22,3.15-0.44,6.3-0.66,9.45c-0.25-0.02-0.5-0.03-0.75-0.05c0.16-3.16,0.31-6.31,0.47-9.47
	C361.33,285.66,361.64,285.68,361.95,285.7z"/>
<path d="M315.12,307.63c2.88,0.32,5.76,0.65,8.64,0.97c-0.03,0.26-0.07,0.53-0.1,0.79c-2.87-0.25-5.75-0.51-8.62-0.76
	C315.07,308.3,315.09,307.96,315.12,307.63z"/>
<path d="M316.97,306.85c-4.11-0.29-8.22-0.58-12.33-0.87c0,0.06,0,0.12,0,0.18c4.12,0,8.24,0,12.36,0
	C316.99,306.39,316.98,306.62,316.97,306.85z"/>
<path d="M327.05,313.91c-0.81-0.14-1.62-0.28-2.57-0.45c0-0.96,0-1.86,0-2.76c0.18-0.15,0.36-0.31,0.53-0.46
	c0.9,0.99,1.79,1.98,2.69,2.97C327.48,313.44,327.26,313.67,327.05,313.91z"/>
<path d="M321.65,289.84c2.27,0.25,2.75,2.17,1,4.97C322.25,292.84,321.96,291.39,321.65,289.84z"/>
<path d="M196.83,203.87c-3.39-5.18-6.77-10.34-10.14-15.49c2.15-2.2,4.87-1.62,8.07,1.68C199.54,194.98,201.12,200.43,196.83,203.87
	z"/>
<path d="M184.39,184.79c-2.28-3.46-4.59-6.91-6.81-10.41c-0.37-0.58-0.35-1.41-0.52-2.12c0.8-0.18,1.72-0.68,2.38-0.46
	c1.25,0.42,2.7,1.01,3.46,1.99c2.49,3.24,2.72,7,2.27,10.82C184.92,184.68,184.66,184.73,184.39,184.79z"/>
<path d="M239.45,532.98c-0.09,0.5-0.19,1.63-0.5,2.71c-2.2,7.65-4.41,15.3-8.95,22.01c-0.58,0.86-1.08,1.87-1.88,2.45
	c-0.73,0.53-1.91,0.93-2.72,0.72c-0.66-0.17-1.49-1.31-1.51-2.03c-0.05-2.06,0.03-4.19,0.49-6.18c1.82-7.76,4.32-15.31,8.18-22.33
	c0.13-0.23,0.22-0.48,0.38-0.68c1.05-1.25,1.54-3.57,3.75-2.9c2.17,0.66,2.72,2.72,2.75,4.84
	C239.45,531.84,239.45,532.1,239.45,532.98z"/>
<path d="M326.59,175.86c1.5-10.86,2.99-21.61,4.51-32.59c3.18,0.89,4.19,2.95,4.52,5.14c1.24,8.44-0.02,16.57-3.81,24.23
	C330.88,174.53,329.36,175.97,326.59,175.86z"/>
<path d="M215.95,184.03c-1.9,0.66-3.26,1.14-5.06,1.77c-2.04-6.21-4.01-12.2-5.98-18.18c0.2-0.1,0.4-0.2,0.6-0.3
	C208.91,172.76,212.3,178.2,215.95,184.03z"/>
<path d="M228.19,165.87c-1.71-4.53-3.25-8.6-5.12-13.54c1.57,0.52,2.61,0.58,3.22,1.12C228.76,155.58,229.84,162.35,228.19,165.87z"
	/>
<path d="M287.71,553.03c0-5.01,0-9.63,0-15.2c1.47,1.1,2.95,1.63,3.06,2.37c0.61,3.97,0.66,7.96-1.46,11.61
	C289.06,552.25,288.45,552.49,287.71,553.03z"/>
<path d="M332.15,274.55c-0.38-3.92-0.76-7.84-1.14-11.76c0.22-0.1,0.43-0.2,0.65-0.31c0.48,0.56,1.3,1.08,1.38,1.69
	c0.33,2.66,0.58,5.34,0.56,8.01c0,0.77-0.97,1.54-1.5,2.32C332.1,274.51,332.15,274.55,332.15,274.55z"/>
<path d="M344.24,246.78c3.1,5.12,6.2,10.25,9.3,15.37c-0.28,0.2-0.56,0.4-0.84,0.6c-0.32-0.34-0.73-0.63-0.95-1.03
	c-1.2-2.2-2.32-4.44-3.55-6.62c-0.33-0.58-0.97-1-1.15-1.47c-1.02-2.21-2.03-4.42-3.05-6.63
	C344.08,246.93,344.16,246.85,344.24,246.78z"/>
<path d="M325.18,261.13c-2.24-0.18-4.3-0.2-6.3-0.58c-0.86-0.16-1.58-1.06-2.75-1.9C321.38,257.54,325.16,258.6,325.18,261.13z"/>
<path d="M331.16,246.25c1.03,3.94,2.06,7.89,3.08,11.83c-0.31,0.08-0.63,0.16-0.94,0.23c-0.87-3.92-1.74-7.84-2.61-11.76
	C330.85,246.45,331,246.35,331.16,246.25z"/>
<path d="M329.77,261.43c-1.81,0.01-3.72,0.59-3.69-2.32C327.85,258.85,329.74,258.19,329.77,261.43z"/>
</svg>
